HIERARCHY
ROOT reference
{
  OFFSET 0 0 0
  CHANNELS 6 Xposition Yposition Zposition Zrotation Xrotation Yrotation
  JOINT Hips
  {
    OFFSET 352.076 86.5813 226.294
    CHANNELS 3 Zrotation Xrotation Yrotation
    JOINT RightUpLeg
    {
      OFFSET -9.24446 -1.53332 -0.0100408
      CHANNELS 3 Zrotation Xrotation Yrotation
      JOINT RightLeg
      {
        OFFSET 0.0379954 -41.8775 0.0555708
        CHANNELS 3 Zrotation Xrotation Yrotation
        JOINT RightFoot
        {
          OFFSET 0.0737403 -43.7597 -0.208372
          CHANNELS 3 Zrotation Xrotation Yrotation
          End Site
          {
            OFFSET 0 -7.69 17.5
          }
        }
      }
    }
    JOINT LeftUpLeg
    {
      OFFSET 9.31004 -1.65148 -0.0333589
      CHANNELS 3 Zrotation Xrotation Yrotation
      JOINT LeftLeg
      {
        OFFSET 0.0881386 -41.8624 -0.0616493
        CHANNELS 3 Zrotation Xrotation Yrotation
        JOINT LeftFoot
        {
          OFFSET 0.763074 -39.9619 0.249975
          CHANNELS 3 Zrotation Xrotation Yrotation
          End Site
          {
            OFFSET 0 -7.69 17.5
          }
        }
      }
    }
    JOINT Spine
    {
      OFFSET 0.105097 14.2958 0.096313
      CHANNELS 3 Zrotation Xrotation Yrotation
      JOINT Spine1
      {
        OFFSET 0.0609256 9.72986 0.0283835
        CHANNELS 3 Zrotation Xrotation Yrotation
        JOINT Spine2
        {
          OFFSET 0.0349843 10.1145 -0.0203086
          CHANNELS 3 Zrotation Xrotation Yrotation
          JOINT Spine3
          {
            OFFSET 0.0323734 9.71864 0.0196425
            CHANNELS 3 Zrotation Xrotation Yrotation
            JOINT Neck
            {
              OFFSET 0.219168 10.3708 0.0833364
              CHANNELS 3 Zrotation Xrotation Yrotation
              JOINT Head
              {
                OFFSET 0.200748 9.48753 0.0966912
                CHANNELS 3 Zrotation Xrotation Yrotation
                End Site
                {
                  OFFSET 0 15.95 0
                }
              }
            }
            JOINT RightShoulder
            {
              OFFSET -3.14734 6.94135 0.063802
              CHANNELS 3 Zrotation Xrotation Yrotation
              JOINT RightArm
              {
                OFFSET -12.765 0.137663 0.228635
                CHANNELS 3 Zrotation Xrotation Yrotation
                JOINT RightForeArm
                {
                  OFFSET -26.5344 -0.389186 -0.00603507
                  CHANNELS 3 Zrotation Xrotation Yrotation
                  JOINT RightHand
                  {
                    OFFSET -26.1352 -0.0585664 0.0704552
                    CHANNELS 3 Zrotation Xrotation Yrotation
                    JOINT RightHandThumb1
                    {
                      OFFSET -2.48905 0.190105 3.12053
                      CHANNELS 3 Zrotation Xrotation Yrotation
                      JOINT RightHandThumb2
                      {
                        OFFSET -3.68274 0 0
                        CHANNELS 3 Zrotation Xrotation Yrotation
                        JOINT RightHandThumb3
                        {
                          OFFSET -2.55832 0 0
                          CHANNELS 3 Zrotation Xrotation Yrotation
                          End Site
                          {
                            OFFSET -2.194 0 0
                          }
                        }
                      }
                    }
                    JOINT RightInHandIndex
                    {
                      OFFSET -3.22368 0.508421 1.97842
                      CHANNELS 3 Zrotation Xrotation Yrotation
                      JOINT RightHandIndex1
                      {
                        OFFSET -5.21684 -0.091368 0.999158
                        CHANNELS 3 Zrotation Xrotation Yrotation
                        JOINT RightHandIndex2
                        {
                          OFFSET -3.61937 0 0
                          CHANNELS 3 Zrotation Xrotation Yrotation
                          JOINT RightHandIndex3
                          {
                            OFFSET -2.0521 0 0
                            CHANNELS 3 Zrotation Xrotation Yrotation
                            End Site
                            {
                              OFFSET -1.805 0 0
                            }
                          }
                        }
                      }
                    }
                    JOINT RightInHandMiddle
                    {
                      OFFSET -3.38211 0.517263 0.756737
                      CHANNELS 3 Zrotation Xrotation Yrotation
                      JOINT RightHandMiddle1
                      {
                        OFFSET -5.17411 -0.084 0.313895
                        CHANNELS 3 Zrotation Xrotation Yrotation
                        JOINT RightHandMiddle2
                        {
                          OFFSET -3.94947 0 0
                          CHANNELS 3 Zrotation Xrotation Yrotation
                          JOINT RightHandMiddle3
                          {
                            OFFSET -2.47579 0 0
                            CHANNELS 3 Zrotation Xrotation Yrotation
                            End Site
                            {
                              OFFSET -1.975 0 0
                            }
                          }
                        }
                      }
                    }
                    JOINT RightInHandRing
                    {
                      OFFSET -3.36516 0.537895 -0.128947
                      CHANNELS 3 Zrotation Xrotation Yrotation
                      JOINT RightHandRing1
                      {
                        OFFSET -4.63474 -0.022105 -0.478947
                        CHANNELS 3 Zrotation Xrotation Yrotation
                        JOINT RightHandRing2
                        {
                          OFFSET -3.44238 0 0
                          CHANNELS 3 Zrotation Xrotation Yrotation
                          JOINT RightHandRing3
                          {
                            OFFSET -2.3881 0 0
                            CHANNELS 3 Zrotation Xrotation Yrotation
                            End Site
                            {
                              OFFSET -1.857 0 0
                            }
                          }
                        }
                      }
                    }
                    JOINT RightInHandPinky
                    {
                      OFFSET -3.16105 0.469368 -1.20179
                      CHANNELS 3 Zrotation Xrotation Yrotation
                      JOINT RightHandPinky1
                      {
                        OFFSET -4.14105 -0.022105 -1.09053
                        CHANNELS 3 Zrotation Xrotation Yrotation
                        JOINT RightHandPinky2
                        {
                          OFFSET -2.75653 0 0
                          CHANNELS 3 Zrotation Xrotation Yrotation
                          JOINT RightHandPinky3
                          {
                            OFFSET -1.74189 0 0
                            CHANNELS 3 Zrotation Xrotation Yrotation
                            End Site
                            {
                              OFFSET -1.645 0 0
                            }
                          }
                        }
                      }
                    }
                  }
                }
              }
            }
            JOINT LeftShoulder
            {
              OFFSET 3.26179 6.89719 -0.0373062
              CHANNELS 3 Zrotation Xrotation Yrotation
              JOINT LeftArm
              {
                OFFSET 12.4839 0.0196156 -0.0323257
                CHANNELS 3 Zrotation Xrotation Yrotation
                JOINT LeftForeArm
                {
                  OFFSET 26.5039 -0.120667 0.247609
                  CHANNELS 3 Zrotation Xrotation Yrotation
                  JOINT LeftHand
                  {
                    OFFSET 25.9984 -0.032285 0.00286418
                    CHANNELS 3 Zrotation Xrotation Yrotation
                    JOINT LeftHandThumb1
                    {
                      OFFSET 2.48905 0.190105 3.12053
                      CHANNELS 3 Zrotation Xrotation Yrotation
                      JOINT LeftHandThumb2
                      {
                        OFFSET 3.68274 0 0
                        CHANNELS 3 Zrotation Xrotation Yrotation
                        JOINT LeftHandThumb3
                        {
                          OFFSET 2.55832 0 0
                          CHANNELS 3 Zrotation Xrotation Yrotation
                          End Site
                          {
                            OFFSET 2.194 0 0
                          }
                        }
                      }
                    }
                    JOINT LeftInHandIndex
                    {
                      OFFSET 3.22368 0.508421 1.97842
                      CHANNELS 3 Zrotation Xrotation Yrotation
                      JOINT LeftHandIndex1
                      {
                        OFFSET 5.21684 -0.091368 0.999158
                        CHANNELS 3 Zrotation Xrotation Yrotation
                        JOINT LeftHandIndex2
                        {
                          OFFSET 3.61937 0 0
                          CHANNELS 3 Zrotation Xrotation Yrotation
                          JOINT LeftHandIndex3
                          {
                            OFFSET 2.0521 0 0
                            CHANNELS 3 Zrotation Xrotation Yrotation
                            End Site
                            {
                              OFFSET 1.805 0 0
                            }
                          }
                        }
                      }
                    }
                    JOINT LeftInHandMiddle
                    {
                      OFFSET 3.38211 0.517263 0.756737
                      CHANNELS 3 Zrotation Xrotation Yrotation
                      JOINT LeftHandMiddle1
                      {
                        OFFSET 5.17411 -0.084 0.313895
                        CHANNELS 3 Zrotation Xrotation Yrotation
                        JOINT LeftHandMiddle2
                        {
                          OFFSET 3.94947 0 0
                          CHANNELS 3 Zrotation Xrotation Yrotation
                          JOINT LeftHandMiddle3
                          {
                            OFFSET 2.47579 0 0
                            CHANNELS 3 Zrotation Xrotation Yrotation
                            End Site
                            {
                              OFFSET 1.975 0 0
                            }
                          }
                        }
                      }
                    }
                    JOINT LeftInHandRing
                    {
                      OFFSET 3.36516 0.537895 -0.128947
                      CHANNELS 3 Zrotation Xrotation Yrotation
                      JOINT LeftHandRing1
                      {
                        OFFSET 4.63474 -0.022105 -0.478947
                        CHANNELS 3 Zrotation Xrotation Yrotation
                        JOINT LeftHandRing2
                        {
                          OFFSET 3.44238 0 0
                          CHANNELS 3 Zrotation Xrotation Yrotation
                          JOINT LeftHandRing3
                          {
                            OFFSET 2.3881 0 0
                            CHANNELS 3 Zrotation Xrotation Yrotation
                            End Site
                            {
                              OFFSET 1.857 0 0
                            }
                          }
                        }
                      }
                    }
                    JOINT LeftInHandPinky
                    {
                      OFFSET 3.16105 0.469368 -1.20179
                      CHANNELS 3 Zrotation Xrotation Yrotation
                      JOINT LeftHandPinky1
                      {
                        OFFSET 4.14105 -0.022105 -1.09053
                        CHANNELS 3 Zrotation Xrotation Yrotation
                        JOINT LeftHandPinky2
                        {
                          OFFSET 2.75653 0 0
                          CHANNELS 3 Zrotation Xrotation Yrotation
                          JOINT LeftHandPinky3
                          {
                            OFFSET 1.74189 0 0
                            CHANNELS 3 Zrotation Xrotation Yrotation
                            End Site
                            {
                              OFFSET 1.645 0 0
                            }
                          }
                        }
                      }
                    }
                  }
                }
              }
            }
          }
        }
      }
    }
  }
}
MOTION
Frames: 2
Frame Time: 0.00833333
9.000000000000000000e+02 0.000000000000000000e+00 0.000000000000000000e+00 0.000000000000000000e+00 0.000000000000000000e+00 0.000000000000000000e+00 -3.352414033387616676e+00 -2.290572926822429523e+00 2.753046697238603358e+01 -1.829180155301573762e+01 1.661289094135687705e+01 -1.296854418632708672e+01 3.363232402268436338e+00 -5.561689060200083468e+00 -1.003955229542498628e+01 -1.146505087021502334e+00 -1.729968942451361125e+00 -6.853410758514955070e+00 -1.828789935263055000e+01 3.905118917321067418e+00 -1.488684032429122794e+01 3.555443183824294806e+00 -9.616743286452839712e+00 -5.577640018669048239e+00 -3.247165382720509808e+00 4.336154603753622716e+00 -1.010304441674843545e+01 -3.013588398742289343e+00 2.406312917232144688e+00 2.135976388851246099e+01 -6.280963640842798235e-01 7.801437036210365772e-01 5.429399588094407925e+00 -1.080474979997798846e+00 1.282439407320766556e+00 8.340139187412043853e+00 3.179569282076302184e-01 -1.235041878784986537e-02 -1.870938124441313910e+00 1.178993417486913664e+00 2.032902005497748965e-01 -1.828246460697465281e+01 5.902700477752639507e+00 -1.457705042729325329e-01 -2.520335679409142671e+01 -7.173261356241839692e+00 -6.757673177225069772e+00 1.429047595963174899e+01 -7.388506563855914422e+00 1.911916121628279441e+01 2.815872060526672627e+01 -7.808032921345999355e+00 4.760936159673741841e+00 -3.565958600685598867e+01 8.364832841123893914e+00 1.155183414517880358e+01 -1.598394976915866650e+01 0.000000000000000000e+00 0.000000000000000000e+00 0.000000000000000000e+00 -4.174456505969496871e-15 -4.700417412865718122e-16 0.000000000000000000e+00 -1.841276562964894705e-15 -4.856467450507983107e-16 0.000000000000000000e+00 4.525804701577847675e-16 -1.096334701127125990e-15 -1.452196073326459867e-16 0.000000000000000000e+00 0.000000000000000000e+00 0.000000000000000000e+00 0.000000000000000000e+00 2.157646232009618969e-15 3.330974116106211973e-15 0.000000000000000000e+00 -2.774470659449077074e-15 -7.647015177202411929e-16 4.525804701577847675e-16 -1.096334701127125990e-15 -1.452196073326459867e-16 0.000000000000000000e+00 -7.499135339725940121e-16 2.350960151368680985e-15 0.000000000000000000e+00 -7.505290054801650110e-16 -9.369301007620354961e-16 0.000000000000000000e+00 -7.744799893573309124e-16 -1.983821690302883983e-15 4.525804701577847675e-16 -1.096334701127125990e-15 -1.452196073326459867e-16 0.000000000000000000e+00 0.000000000000000000e+00 0.000000000000000000e+00 0.000000000000000000e+00 7.320402928798807570e-19 3.357395056952100492e-16 0.000000000000000000e+00 8.079224387817722370e-16 -3.122849351621142262e-15 4.525804701577847675e-16 -1.096334701127125990e-15 -1.452196073326459867e-16 0.000000000000000000e+00 0.000000000000000000e+00 0.000000000000000000e+00 0.000000000000000000e+00 -1.737975277630644984e-15 2.813929686124870301e-15 0.000000000000000000e+00 -5.028726353287842521e-16 7.331290454870834651e-16 -3.508035317811338150e+00 5.348909943662587541e-01 9.761340494845187621e+00 -2.401139605297792912e+01 -6.090705014910936299e+00 2.232563106188688096e+01 -3.988267148316551669e+01 -2.117171973042060173e+01 -5.389049554558523880e+01 4.273113236286245176e+00 -9.663793559606126404e-01 -3.667386143277548971e+00 0.000000000000000000e+00 0.000000000000000000e+00 0.000000000000000000e+00 -2.768169983822555065e-16 -1.086950793580346486e-15 0.000000000000000000e+00 -2.052721841968991710e-15 -2.075460972468409796e-16 0.000000000000000000e+00 -5.092733133637392721e-16 -2.218409377753470282e-15 1.892586220012451128e-15 0.000000000000000000e+00 0.000000000000000000e+00 0.000000000000000000e+00 0.000000000000000000e+00 2.315705917620962807e-16 -4.076676140996346031e-15 0.000000000000000000e+00 1.209661527870109811e-15 -1.290973428896570874e-15 -5.092733133637392721e-16 -2.218409377753470282e-15 1.892586220012451128e-15 0.000000000000000000e+00 7.444696957683821764e-16 -4.504027108898730130e-15 0.000000000000000000e+00 -9.994091071745210846e-16 -4.484063953013969912e-15 0.000000000000000000e+00 2.281259656785042029e-16 -3.813826099829785709e-15 -5.092733133637392721e-16 -2.218409377753470282e-15 1.892586220012451128e-15 0.000000000000000000e+00 0.000000000000000000e+00 0.000000000000000000e+00 0.000000000000000000e+00 -5.177981740733733985e-16 -3.943041560075769289e-15 0.000000000000000000e+00 -2.096413249169599935e-15 -4.079366916271968814e-16 -5.092733133637392721e-16 -2.218409377753470282e-15 1.892586220012451128e-15 0.000000000000000000e+00 0.000000000000000000e+00 0.000000000000000000e+00 0.000000000000000000e+00 1.126153388280716261e-15 -3.824368978156882154e-15 0.000000000000000000e+00 6.256318067093040481e-16 1.356600251841191442e-15
9.000000000000000000e+02 0.000000000000000000e+00 0.000000000000000000e+00 0.000000000000000000e+00 0.000000000000000000e+00 0.000000000000000000e+00 -3.367322391164480067e+00 -2.398619753059971771e+00 2.733788292551090748e+01 -1.825681984066843455e+01 1.659191367551149909e+01 -1.291743572519015437e+01 3.363268272034790840e+00 -5.588394480686035060e+00 -1.003190294006570937e+01 -1.181211364407810382e+00 -1.637621263891648082e+00 -6.696398498006749023e+00 -1.819985302045615327e+01 4.039802616277236247e+00 -1.475295625256583776e+01 3.420109575242279654e+00 -9.594255011945254097e+00 -5.449704838911516802e+00 -3.242656646236386830e+00 4.266772703440795844e+00 -1.007542147579284375e+01 -3.063734454185505385e+00 2.424902202147067865e+00 2.141236276393520299e+01 -6.396293364511069779e-01 7.836591517613845648e-01 5.441306019851774423e+00 -1.099959768812488470e+00 1.287234922342280097e+00 8.361763122406667748e+00 3.140586646653467651e-01 -1.455090457942079425e-02 -1.866118091516685507e+00 1.176258886118396241e+00 2.031040039041636658e-01 -1.824083647362414595e+01 5.835211662991223847e+00 -1.787485308924944283e-01 -2.513856269817518196e+01 -7.172762792792751085e+00 -6.720698356616710001e+00 1.430676742805214197e+01 -7.376931937622325464e+00 1.894591348296817657e+01 2.818047863491822724e+01 -7.616250948299214230e+00 4.829574809592123152e+00 -3.564791040548877987e+01 8.461554599978546420e+00 1.159037610244148198e+01 -1.622208133775809102e+01 0.000000000000000000e+00 0.000000000000000000e+00 0.000000000000000000e+00 -4.223115484829175232e-15 -4.689293075733069071e-16 0.000000000000000000e+00 -1.842028063945864134e-15 -5.059314295236326931e-16 0.000000000000000000e+00 4.431405626519260174e-16 -1.095865785062484456e-15 -1.547566932527860773e-16 0.000000000000000000e+00 0.000000000000000000e+00 0.000000000000000000e+00 0.000000000000000000e+00 2.208147831219826064e-15 3.473727768368359302e-15 0.000000000000000000e+00 -2.815933779812748969e-15 -7.527271311892733198e-16 4.431405626519260174e-16 -1.095865785062484456e-15 -1.547566932527860773e-16 0.000000000000000000e+00 -7.628117649589727662e-16 2.361607822066201965e-15 0.000000000000000000e+00 -7.211405351829322309e-16 -8.217415671430992412e-16 0.000000000000000000e+00 -7.506891180061842726e-16 -1.957689485071777034e-15 4.431405626519260174e-16 -1.095865785062484456e-15 -1.547566932527860773e-16 0.000000000000000000e+00 0.000000000000000000e+00 0.000000000000000000e+00 0.000000000000000000e+00 1.662244595338241053e-17 4.061230462661919363e-16 0.000000000000000000e+00 8.283777813294249494e-16 -3.111519819258982478e-15 4.431405626519260174e-16 -1.095865785062484456e-15 -1.547566932527860773e-16 0.000000000000000000e+00 0.000000000000000000e+00 0.000000000000000000e+00 0.000000000000000000e+00 -1.802905801124496678e-15 2.657715349766646043e-15 0.000000000000000000e+00 -5.282364678592298281e-16 7.447323696009518924e-16 -3.515896080585246164e+00 5.307441133470101047e-01 9.732396766823903533e+00 -2.399053716111011880e+01 -6.016262513949611090e+00 2.228028308567046523e+01 -4.007503033591692798e+01 -2.115102169932465159e+01 -5.412657276474902801e+01 4.338557774848204041e+00 -1.018159584033612175e+00 -3.646481827714429524e+00 0.000000000000000000e+00 0.000000000000000000e+00 0.000000000000000000e+00 -3.206121321503199580e-16 -1.060887571359087839e-15 0.000000000000000000e+00 -2.094483317665716662e-15 -1.747469211113920033e-16 0.000000000000000000e+00 -5.156650305884522349e-16 -2.238209800418413967e-15 1.906208714989922401e-15 0.000000000000000000e+00 0.000000000000000000e+00 0.000000000000000000e+00 0.000000000000000000e+00 2.219698577001210071e-16 -4.075189100380972510e-15 0.000000000000000000e+00 1.223283803524811505e-15 -1.316470503326341442e-15 -5.156650305884522349e-16 -2.238209800418413967e-15 1.906208714989922401e-15 0.000000000000000000e+00 7.494681762581177350e-16 -4.570651522611353585e-15 0.000000000000000000e+00 -1.022815084204867473e-15 -4.519194815560569980e-15 0.000000000000000000e+00 2.256510512867289067e-16 -3.853353938962245856e-15 -5.156650305884522349e-16 -2.238209800418413967e-15 1.906208714989922401e-15 0.000000000000000000e+00 0.000000000000000000e+00 0.000000000000000000e+00 0.000000000000000000e+00 -5.298858848202221193e-16 -3.952897307474265869e-15 0.000000000000000000e+00 -2.108686324646747915e-15 -3.977701135778822670e-16 -5.156650305884522349e-16 -2.238209800418413967e-15 1.906208714989922401e-15 0.000000000000000000e+00 0.000000000000000000e+00 0.000000000000000000e+00 0.000000000000000000e+00 1.133613243360616386e-15 -3.838547418428225112e-15 0.000000000000000000e+00 6.115545453965190780e-16 1.406149203472843313e-15
